<?xml version="1.0" standalone="yes"?>
<svg xmlns="http://www.w3.org/2000/svg" width="100" height="100">
<path style="fill:#010101; stroke:none;" d="M0 0L0 100L100 100L100 0L0 0z"/>
<path style="fill:#ffffff; stroke:none;" d="M22 56C11.3815 39.1738 -7.92531 71.963 14 71.963C16 71.963 18.0599 71.7253 19.811 70.6821C24.8922 67.655 24.0928 61.7467 30 59C33.1638 65.098 38.1269 69.7551 45 71L45 76C34.1576 77.4615 32.2172 94.3793 44.0039 95.8657C52.2937 96.9112 58.3579 90.239 55.3974 82C54.552 79.6474 51.1439 76.9572 51.6304 74.3179C51.9792 72.4255 65.7419 68.2994 68 67.9035C79.5462 65.8792 72.7699 89.1351 88.9853 85.7215C96.5846 84.1217 98.6885 72.5833 92.6559 67.8935C88.822 64.9131 84.2701 66.9166 80.0015 65.8333C77.904 65.301 75.9214 63.9598 74.9823 61.9522C70.6821 52.7593 80.3852 42.3675 71 33L71 32C76.7432 28.1805 88.2271 29.4789 91.142 22.9059C95.7033 12.6202 82.9082 2.23685 74.5725 10.5725C70.2172 14.9279 71.7682 23.463 68 29L67 29C61.2733 23.2625 51.4779 22.7896 44 25C44.0569 19.4006 47.9763 13.7182 44.6821 8.18904C40.8106 1.69092 28.8214 2.73247 26.5139 10.0401C25.1396 14.3923 26.0647 20.188 30.189 22.6829C31.8621 23.6949 36.7402 23.7364 37.2176 26.0324C37.7914 28.7918 32.3501 32.8131 30.9946 35C26.4763 42.2897 30.9898 52.3542 22 56z"/>
<path style="fill:#010101; stroke:none;" d="M33.3179 10.0324C28.2073 13.3323 33.4901 21.32 38.6821 17.9676C43.7927 14.6677 38.5099 6.67996 33.3179 10.0324M79.3179 14.0324C74.2074 17.3323 79.4901 25.32 84.6821 21.9676C89.7927 18.6677 84.5099 10.68 79.3179 14.0324M46 29.6381C22.1811 36.5229 33.9936 73.3009 58 66.3619C81.8189 59.4771 70.0064 22.6991 46 29.6381z"/>
<path style="fill:#ffffff; stroke:none;" d="M50 34C43.8865 45.1055 43.1859 47.2959 56 53L56 54L44 51C44.7001 63.752 62.1224 63.3573 59.6628 52.0177C58.4662 46.5008 51.5204 46.616 49 42C52.5034 42.0552 53.9073 42.6102 55 46L60 46L54 34L50 34z"/>
<path style="fill:#010101; stroke:none;" d="M11.3179 58.0324C6.20735 61.3323 11.4901 69.32 16.6821 65.9676C21.7927 62.6677 16.5098 54.68 11.3179 58.0324M83.3179 72.0324C78.2074 75.3323 83.4901 83.32 88.6821 79.9676C93.7927 76.6677 88.5098 68.68 83.3179 72.0324M43.3179 82.0324C38.2074 85.3323 43.4901 93.32 48.6821 89.9676C53.7926 86.6677 48.5099 78.68 43.3179 82.0324z"/>
</svg>
