<?xml version="1.0" standalone="yes"?>
<svg xmlns="http://www.w3.org/2000/svg" width="100" height="100">
<path style="fill:#010101; stroke:none;" d="M0 0L0 100L100 100L100 0L0 0z"/>
<path style="fill:#ffffff; stroke:none;" d="M10.3179 9.02778C7.0889 11.1825 8.05027 16.6599 7.57176 20C5.97598 31.139 7.66463 40.0886 7.98457 51C8.24799 59.9841 8 69.0118 8 78C8 81.3893 7.04644 86.7129 9.02778 89.6821C11.884 93.9624 22.5424 92 27 92L72 92C76.719 92 85.6101 93.6894 89.6821 90.9722C92.9368 88.8004 91.9998 83.3408 92 80C92.0006 70.3461 91.7325 60.6495 92.0154 51C92.3432 39.8216 97.8772 20.6643 90.9722 10.3179C88.1156 6.03762 77.4579 8 73 8L28 8C23.281 8 14.3899 6.31057 10.3179 9.02778z"/>
<path style="fill:#010101; stroke:none;" d="M12 20L88 20C87.6937 10.5958 80.502 12 73 12L27 12C19.498 12 12.3063 10.5958 12 20z"/>
<path style="fill:#ffffff; stroke:none;" d="M14 14L14 18L18 18L18 14L14 14M20 14L20 18L24 18L24 14L20 14M26 14L26 18L30 18L30 14L26 14z"/>
<path style="fill:#010101; stroke:none;" d="M12 24C11.6572 28.3442 8.62458 38.7505 12.7423 41.9676C21.2929 48.6481 20 27.2055 20 24L12 24M24 24C24 28.5317 22.4185 36.782 25.0278 40.6821C27.0971 43.775 31.9497 43.164 33.3966 39.8519C35.2803 35.5398 34 28.6452 34 24L24 24M38 24C38 28.5317 36.4185 36.782 39.0278 40.6821C41.0971 43.775 45.9497 43.164 47.3966 39.8519C49.2803 35.5398 48 28.6452 48 24L38 24M52 24C52 28.5317 50.4185 36.782 53.0278 40.6821C55.0971 43.775 59.9497 43.164 61.3966 39.8519C63.2803 35.5398 62 28.6452 62 24L52 24M66 24C66 28.5317 64.4184 36.782 67.0278 40.6821C69.0971 43.775 73.9497 43.164 75.3966 39.8519C77.2803 35.5398 76 28.6452 76 24L66 24M80 24C80 27.2055 78.7071 48.6481 87.2577 41.9676C91.3754 38.7505 88.3428 28.3442 88 24L80 24M12 48C12 56.7742 7.36474 86.3039 18 88L18 54L40 54L40 88L74 88L86.3966 86.3966L88 76L88 48L12 48z"/>
<path style="fill:#ffffff; stroke:none;" d="M46 54L46 82L82 82L82 54L46 54z"/>
<path style="fill:#010101; stroke:none;" d="M22 58L22 88L36 88L36 58L22 58M50 58L50 78L78 78L78 58L50 58z"/>
</svg>
